<svg viewBox="0 0 1200 600" xmlns="http://www.w3.org/2000/svg">
  <defs>
    <linearGradient id="bgGradient" x1="0%" y1="0%" x2="100%" y2="100%">
      <stop offset="0%" style="stop-color:#0f172a;stop-opacity:1" />
      <stop offset="50%" style="stop-color:#1e293b;stop-opacity:1" />
      <stop offset="100%" style="stop-color:#0f172a;stop-opacity:1" />
    </linearGradient>
    
    <linearGradient id="accentGradient" x1="0%" y1="0%" x2="100%" y2="100%">
      <stop offset="0%" style="stop-color:#10b981;stop-opacity:1" />
      <stop offset="100%" style="stop-color:#3b82f6;stop-opacity:1" />
    </linearGradient>
    
    <linearGradient id="glowGradient" x1="0%" y1="0%" x2="100%" y2="100%">
      <stop offset="0%" style="stop-color:#10b981;stop-opacity:0.3" />
      <stop offset="100%" style="stop-color:#3b82f6;stop-opacity:0.3" />
    </linearGradient>
    
    <filter id="glow">
      <feGaussianBlur stdDeviation="4" result="coloredBlur"/>
      <feMerge>
        <feMergeNode in="coloredBlur"/>
        <feMergeNode in="SourceGraphic"/>
      </feMerge>
    </filter>
  </defs>
  
  <!-- Fondo -->
  <rect width="1200" height="600" fill="url(#bgGradient)"/>
  
  <!-- Formas geométricas decorativas de fondo -->
  <circle cx="150" cy="100" r="120" fill="url(#glowGradient)" opacity="0.15"/>
  <circle cx="1050" cy="500" r="150" fill="url(#glowGradient)" opacity="0.15"/>
  <circle cx="300" cy="450" r="100" fill="url(#glowGradient)" opacity="0.12"/>
  <rect x="900" y="50" width="200" height="200" fill="url(#glowGradient)" opacity="0.1" transform="rotate(15 1000 150)"/>
  <rect x="100" y="400" width="150" height="150" fill="url(#glowGradient)" opacity="0.08" transform="rotate(-20 175 475)"/>
  
  <!-- Partículas flotantes -->
  <circle cx="200" cy="150" r="3" fill="#10b981" opacity="0.6">
    <animate attributeName="cy" values="150;130;150" dur="3s" repeatCount="indefinite"/>
  </circle>
  <circle cx="350" cy="250" r="4" fill="#3b82f6" opacity="0.5">
    <animate attributeName="cy" values="250;230;250" dur="3.5s" repeatCount="indefinite"/>
  </circle>
  <circle cx="950" cy="200" r="4" fill="#3b82f6" opacity="0.6">
    <animate attributeName="cy" values="200;180;200" dur="4s" repeatCount="indefinite"/>
  </circle>
  <circle cx="1100" cy="350" r="3" fill="#10b981" opacity="0.6">
    <animate attributeName="cy" values="350;330;350" dur="3.5s" repeatCount="indefinite"/>
  </circle>
  <circle cx="100" cy="400" r="4" fill="#3b82f6" opacity="0.6">
    <animate attributeName="cy" values="400;380;400" dur="4.5s" repeatCount="indefinite"/>
  </circle>
  <circle cx="450" cy="500" r="3" fill="#10b981" opacity="0.5">
    <animate attributeName="cy" values="500;480;500" dur="4s" repeatCount="indefinite"/>
  </circle>
  <circle cx="800" cy="450" r="4" fill="#3b82f6" opacity="0.5">
    <animate attributeName="cy" values="450;430;450" dur="3.8s" repeatCount="indefinite"/>
  </circle>
  
  <!-- Líneas conectoras decorativas -->
  <line x1="200" y1="150" x2="350" y2="250" stroke="url(#accentGradient)" stroke-width="1" opacity="0.3" stroke-dasharray="5,5">
    <animate attributeName="stroke-dashoffset" values="0;10" dur="2s" repeatCount="indefinite"/>
  </line>
  <line x1="350" y1="250" x2="500" y2="300" stroke="url(#accentGradient)" stroke-width="1" opacity="0.3" stroke-dasharray="5,5">
    <animate attributeName="stroke-dashoffset" values="0;10" dur="2.2s" repeatCount="indefinite"/>
  </line>
  <line x1="950" y1="200" x2="800" y2="300" stroke="url(#accentGradient)" stroke-width="1" opacity="0.3" stroke-dasharray="5,5">
    <animate attributeName="stroke-dashoffset" values="0;10" dur="2.5s" repeatCount="indefinite"/>
  </line>
  <line x1="1100" y1="350" x2="950" y2="400" stroke="url(#accentGradient)" stroke-width="1" opacity="0.3" stroke-dasharray="5,5">
    <animate attributeName="stroke-dashoffset" values="0;10" dur="2.8s" repeatCount="indefinite"/>
  </line>
  
  <!-- Ilustración central: Libro digital/tablet -->
  <g transform="translate(500, 175)">
    <!-- Dispositivo tablet -->
    <rect x="0" y="0" width="350" height="250" rx="15" fill="#1e293b" stroke="url(#accentGradient)" stroke-width="3" filter="url(#glow)"/>
    
    <!-- Pantalla -->
    <rect x="15" y="15" width="320" height="220" rx="8" fill="#0f172a"/>
    
    <!-- Elementos de interfaz en la pantalla -->
    <rect x="30" y="30" width="80" height="8" rx="4" fill="#10b981" opacity="0.7"/>
    <rect x="30" y="50" width="290" height="4" rx="2" fill="#475569" opacity="0.5"/>
    <rect x="30" y="60" width="290" height="4" rx="2" fill="#475569" opacity="0.5"/>
    <rect x="30" y="70" width="230" height="4" rx="2" fill="#475569" opacity="0.5"/>
    
    <rect x="30" y="95" width="60" height="60" rx="8" fill="url(#accentGradient)" opacity="0.3"/>
    <rect x="105" y="95" width="60" height="60" rx="8" fill="url(#accentGradient)" opacity="0.3"/>
    <rect x="180" y="95" width="60" height="60" rx="8" fill="url(#accentGradient)" opacity="0.3"/>
    <rect x="255" y="95" width="60" height="60" rx="8" fill="url(#accentGradient)" opacity="0.3"/>
    
    <rect x="30" y="170" width="100" height="6" rx="3" fill="#3b82f6" opacity="0.6"/>
    <rect x="30" y="185" width="290" height="3" rx="1.5" fill="#475569" opacity="0.4"/>
    <rect x="30" y="195" width="290" height="3" rx="1.5" fill="#475569" opacity="0.4"/>
    <rect x="30" y="205" width="200" height="3" rx="1.5" fill="#475569" opacity="0.4"/>
  </g>
  
  <!-- Iconos flotantes alrededor del tablet -->
  <g transform="translate(450, 150)">
    <circle cx="0" cy="0" r="28" fill="#1e293b" stroke="#10b981" stroke-width="2" opacity="0.9" filter="url(#glow)"/>
    <path d="M -8 -5 L -8 5 L 8 5 L 8 -5 Z M -5 -8 L -5 -5 L 5 -5 L 5 -8 Z" fill="#10b981"/>
    <animate attributeName="opacity" values="0.7;1;0.7" dur="2s" repeatCount="indefinite"/>
  </g>
  
  <g transform="translate(900, 250)">
    <circle cx="0" cy="0" r="28" fill="#1e293b" stroke="#3b82f6" stroke-width="2" opacity="0.9" filter="url(#glow)"/>
    <circle cx="0" cy="0" r="8" fill="none" stroke="#3b82f6" stroke-width="2"/>
    <path d="M 0 -12 L 0 -8" stroke="#3b82f6" stroke-width="2"/>
    <animate attributeName="opacity" values="0.7;1;0.7" dur="2.5s" repeatCount="indefinite"/>
  </g>
  
  <g transform="translate(420, 400)">
    <circle cx="0" cy="0" r="28" fill="#1e293b" stroke="#10b981" stroke-width="2" opacity="0.9" filter="url(#glow)"/>
    <path d="M -6 0 L 0 6 L 10 -6" fill="none" stroke="#10b981" stroke-width="2" stroke-linecap="round" stroke-linejoin="round"/>
    <animate attributeName="opacity" values="0.7;1;0.7" dur="3s" repeatCount="indefinite"/>
  </g>
  
  <g transform="translate(900, 380)">
    <circle cx="0" cy="0" r="28" fill="#1e293b" stroke="#3b82f6" stroke-width="2" opacity="0.9" filter="url(#glow)"/>
    <path d="M -8 -8 L -8 8 L 8 8 L 8 -8 Z M -4 -4 L 4 -4 L 4 4 L -4 4 Z" fill="none" stroke="#3b82f6" stroke-width="2"/>
    <animate attributeName="opacity" values="0.7;1;0.7" dur="2.8s" repeatCount="indefinite"/>
  </g>
  
  <g transform="translate(350, 280)">
    <circle cx="0" cy="0" r="25" fill="#1e293b" stroke="#10b981" stroke-width="2" opacity="0.85" filter="url(#glow)"/>
    <circle cx="0" cy="-5" r="4" fill="#10b981"/>
    <path d="M -5 2 Q 0 8 5 2" fill="none" stroke="#10b981" stroke-width="2" stroke-linecap="round"/>
    <animate attributeName="opacity" values="0.6;0.95;0.6" dur="3.2s" repeatCount="indefinite"/>
  </g>
</svg>