<svg viewBox="0 0 400 300" xmlns="http://www.w3.org/2000/svg">
  <defs>
    <linearGradient id="bgDiseno" x1="0%" y1="0%" x2="100%" y2="100%">
      <stop offset="0%" style="stop-color:#1e293b;stop-opacity:1" />
      <stop offset="100%" style="stop-color:#0f172a;stop-opacity:1" />
    </linearGradient>
    
    <linearGradient id="accentDiseno" x1="0%" y1="0%" x2="100%" y2="100%">
      <stop offset="0%" style="stop-color:#ec4899;stop-opacity:1" />
      <stop offset="50%" style="stop-color:#8b5cf6;stop-opacity:1" />
      <stop offset="100%" style="stop-color:#3b82f6;stop-opacity:1" />
    </linearGradient>
    
    <filter id="glowDiseno">
      <feGaussianBlur stdDeviation="3" result="coloredBlur"/>
      <feMerge>
        <feMergeNode in="coloredBlur"/>
        <feMergeNode in="SourceGraphic"/>
      </feMerge>
    </filter>
  </defs>
  
  <!-- Fondo -->
  <rect width="400" height="300" fill="url(#bgDiseno)"/>
  
  <!-- Elementos decorativos -->
  <circle cx="60" cy="60" r="50" fill="#ec4899" opacity="0.15"/>
  <circle cx="340" cy="240" r="70" fill="#8b5cf6" opacity="0.15"/>
  
  <!-- Tableta de diseño -->
  <rect x="100" y="80" width="200" height="140" rx="8" fill="#0f172a" stroke="url(#accentDiseno)" stroke-width="2" filter="url(#glowDiseno)"/>
  
  <!-- Pantalla de la tableta -->
  <rect x="110" y="90" width="180" height="120" rx="4" fill="#1e293b"/>
  
  <!-- Elementos de diseño en pantalla -->
  <circle cx="150" cy="130" r="20" fill="#ec4899" opacity="0.6"/>
  <rect x="185" y="110" width="60" height="40" fill="#8b5cf6" opacity="0.6" transform="rotate(15 215 130)"/>
  <polygon points="235,160 255,120 275,160" fill="#3b82f6" opacity="0.6"/>
  
  <!-- Paleta de colores -->
  <g transform="translate(50, 180)">
    <rect x="0" y="0" width="70" height="50" rx="8" fill="#0f172a" stroke="#ec4899" stroke-width="2" opacity="0.9"/>
    <circle cx="15" cy="15" r="8" fill="#ec4899"/>
    <circle cx="35" cy="15" r="8" fill="#8b5cf6"/>
    <circle cx="55" cy="15" r="8" fill="#3b82f6"/>
    <circle cx="15" cy="35" r="8" fill="#f59e0b"/>
    <circle cx="35" cy="35" r="8" fill="#10b981"/>
    <circle cx="55" cy="35" r="8" fill="#ef4444"/>
  </g>
  
  <!-- Herramientas de diseño -->
  <g transform="translate(310, 120)">
    <!-- Pincel -->
    <line x1="0" y1="30" x2="15" y2="15" stroke="url(#accentDiseno)" stroke-width="3" stroke-linecap="round"/>
    <circle cx="17" cy="13" r="4" fill="#ec4899"/>
    <animate attributeName="opacity" values="0.6;1;0.6" dur="2s" repeatCount="indefinite"/>
  </g>
  
  <!-- Regla -->
  <rect x="130" y="240" width="140" height="15" rx="3" fill="#1e293b" stroke="#8b5cf6" stroke-width="1.5" opacity="0.8"/>
  <line x1="140" y1="240" x2="140" y2="248" stroke="#8b5cf6" stroke-width="1"/>
  <line x1="160" y1="240" x2="160" y2="255" stroke="#8b5cf6" stroke-width="1"/>
  <line x1="180" y1="240" x2="180" y2="248" stroke="#8b5cf6" stroke-width="1"/>
  <line x1="200" y1="240" x2="200" y2="255" stroke="#8b5cf6" stroke-width="1"/>
  <line x1="220" y1="240" x2="220" y2="248" stroke="#8b5cf6" stroke-width="1"/>
  <line x1="240" y1="240" x2="240" y2="255" stroke="#8b5cf6" stroke-width="1"/>
  <line x1="260" y1="240" x2="260" y2="248" stroke="#8b5cf6" stroke-width="1"/>
  
  <!-- Cursor/pluma -->
  <g transform="translate(200, 150)">
    <path d="M 0 0 L -5 15 L 5 12 Z" fill="url(#accentDiseno)" filter="url(#glowDiseno)">
      <animateTransform attributeName="transform" type="translate" values="0,0; 10,-10; 0,0" dur="3s" repeatCount="indefinite"/>
    </path>
  </g>
</svg>